<?xml version="1.0" encoding="UTF-8"?>
<!DOCTYPE svg PUBLIC "-//W3C//DTD SVG 1.1//EN" "http://www.w3.org/Graphics/SVG/1.1/DTD/svg11.dtd">
<svg version="1.1" xmlns="http://www.w3.org/2000/svg" xmlns:xlink="http://www.w3.org/1999/xlink" x="0px" y="0px" width="33.657" height="40" viewBox="0, 0, 33.657, 40">
  <g id="g4">
    <g>
      <g>
        <g>
          <path d="M33.434,10.63 C33.439,10.653 33.424,10.656 33.408,10.657 C28.514,13.426 23.616,16.374 18.688,19.141 C17.985,19.536 17.234,19.887 16.573,20.319 C16.402,20.43 16.254,20.556 16.172,20.801 C10.792,17.117 5.478,13.366 0.14,9.64 C0.71,9.08 1.45,8.72 2.147,8.329 C6.706,5.769 11.224,3.12 15.824,0.54 C16.146,0.36 16.652,0.019 16.921,0.005 C17.27,-0.013 17.675,0.305 18.072,0.567 C22.487,3.483 26.933,6.361 31.374,9.212 C31.676,9.406 32.051,9.625 32.417,9.854 C32.829,10.112 33.274,10.29 33.434,10.63 z" fill="#042389" fill-opacity="0.2"/>
          <path d="M28.559,9.769 C28.605,10.315 28.142,10.351 27.917,10.626 C27.604,10.644 27.221,10.59 26.953,10.653 C26.227,10.997 25.513,11.354 24.785,11.696 C24.426,12.033 24.078,12.381 23.741,12.74 C23.505,13.155 23.255,13.556 23.046,13.998 C22.274,14.481 21.469,15.018 20.664,15.524 C20.403,15.687 20.153,15.902 19.887,16.032 C19.567,16.19 19.134,16.263 18.737,16.407 C18.562,16.47 18.369,16.551 18.174,16.621 C17.9,16.72 17.712,16.866 17.318,16.835 C17.22,16.835 17.122,16.835 17.024,16.835 C16.942,16.852 16.793,16.801 16.756,16.862 C16.711,16.862 16.667,16.862 16.622,16.862 C16.524,16.862 16.426,16.862 16.328,16.862 C16.246,16.879 16.097,16.828 16.06,16.889 C16.015,16.889 15.971,16.889 15.926,16.889 C15.792,16.889 15.659,16.889 15.525,16.889 C14.597,16.415 13.49,16.122 13.143,15.069 C13.143,14.944 13.143,14.819 13.143,14.694 C13.18,14.006 13.596,13.366 14.133,12.927 C14.342,12.756 14.648,12.678 14.749,12.446 C14.918,12.053 14.754,11.422 14.347,11.295 C14.248,11.25 13.964,11.25 13.865,11.295 C13.46,11.287 13.245,11.729 13.036,11.964 C12.699,12.342 12.281,12.593 11.805,12.847 C11.665,12.922 11.518,13.031 11.376,13.088 C10.949,13.261 10.215,13.187 9.53,13.249 C9.413,13.187 9.182,13.239 9.021,13.222 C8.649,13.269 8.401,12.986 8.111,12.874 C7.646,12.694 7.114,12.562 6.746,12.312 C6.084,11.862 5.593,11.18 4.953,10.813 C4.902,10.552 4.6,10.362 4.551,10.064 C4.507,9.792 4.645,9.477 4.659,9.154 C5.055,9.068 5.322,9.362 5.649,9.475 C5.804,9.529 5.999,9.532 6.184,9.582 C6.495,9.665 6.807,9.808 7.281,9.769 C7.118,9.53 6.772,9.596 6.452,9.502 C6.166,9.417 5.892,9.197 5.622,9.127 C5.371,9.062 5.131,9.124 4.926,8.993 C4.925,8.977 4.922,8.962 4.899,8.966 C5.026,8.799 5.201,8.679 5.328,8.511 C5.758,8.039 6.199,7.478 6.773,7.12 C7.415,6.719 8.455,6.828 9.208,6.424 C9.739,6.139 10.005,5.41 10.52,5.086 C10.758,4.936 11.02,4.943 11.296,4.791 C11.706,4.773 12.188,4.827 12.554,4.764 C12.906,4.687 13.219,4.73 13.491,4.631 C14.072,4.419 14.253,3.757 14.668,3.319 C14.824,3.156 15.278,2.8 15.498,2.704 C15.784,2.578 16.094,2.593 16.515,2.463 C16.729,2.463 16.943,2.463 17.157,2.463 C17.805,2.539 18.133,2.958 18.656,3.266 C19.468,3.743 20.432,4.128 21.279,4.604 C21.563,4.763 21.915,4.921 22.109,5.086 C22.244,5.201 22.627,5.731 22.698,5.915 C22.828,6.259 22.758,6.562 22.858,6.852 C22.917,7.023 23.079,7.191 23.206,7.387 C23.488,7.824 23.814,8.354 24.277,8.592 C24.779,8.85 25.442,8.954 26.123,9.047 C26.757,9.133 27.484,9.27 28.157,9.368 C28.28,9.513 28.414,9.647 28.559,9.769 z M16.729,3.747 C16.798,3.752 16.899,3.861 16.943,3.801 C16.901,3.77 16.8,3.661 16.729,3.747 z M17.211,4.309 C17.173,4.107 17.07,3.969 16.943,3.854 C16.982,4.163 17.04,4.453 17.211,4.631 C17.211,4.648 17.211,4.666 17.211,4.684 C17.211,5.121 17.211,5.558 17.211,5.996 C17.216,6.117 17.116,6.274 17.184,6.37 C17.3,6.165 17.417,5.961 17.452,5.674 C17.496,5.602 17.496,5.345 17.452,5.273 C17.476,5.008 17.375,4.868 17.264,4.738 C17.264,4.729 17.264,4.72 17.264,4.711 C17.192,4.632 17.286,4.386 17.211,4.309 z M19.727,4.979 C20.065,5.229 20.338,5.545 20.797,5.674 C20.382,5.323 20.213,4.492 19.272,4.577 C19.134,4.683 18.703,4.772 18.817,4.952 C18.835,4.952 18.852,4.952 18.87,4.952 C19.102,5.014 19.45,4.961 19.727,4.979 z M13.544,5.273 C13.466,5.914 14.11,5.974 14.535,6.022 C14.304,5.673 13.891,5.507 13.544,5.273 z M14.588,6.103 C14.751,6.199 14.944,6.407 15.23,6.29 C14.984,6.277 14.815,6.045 14.588,6.103 z M13.999,6.959 C13.383,6.896 13.039,7.105 12.955,7.575 C12.911,7.674 12.911,7.958 12.955,8.056 C12.95,8.276 13.004,8.436 13.063,8.592 C13.851,8.659 14.252,9.115 14.481,9.743 C14.417,9.73 14.286,9.546 14.267,9.662 C14.306,9.826 14.174,10.097 14.32,10.251 C14.497,10.373 14.894,10.353 15.043,10.224 C15.051,10.009 15.08,9.816 15.15,9.662 C15.406,9.41 16.074,9.569 16.328,9.314 C16.561,8.606 16.012,8.246 15.632,7.976 C15.554,7.876 15.465,7.787 15.364,7.708 C15.068,7.398 14.771,7.088 14.294,6.959 C14.256,6.915 14.037,6.915 13.999,6.959 z M18.228,8.244 C18.659,7.774 19.38,7.594 19.727,7.039 C18.801,6.997 18.547,7.769 18.228,8.244 z M18.121,8.324 C18.11,8.394 18.041,8.405 18.041,8.485 C18.119,8.498 18.183,8.362 18.121,8.324 z M8.727,7.066 C8.721,7.045 8.704,7.035 8.673,7.039 C8.681,7.131 8.871,7.269 8.968,7.361 C9.113,7.358 9.19,7.424 9.342,7.414 C9.676,8.124 10.189,8.798 11.028,8.913 C10.667,8.803 10.583,8.423 10.359,8.19 C10.267,8.094 10.12,8.051 10.011,7.949 C9.612,7.575 9.371,7.139 8.727,7.066 z M18.71,10.867 C19.182,10.631 19.351,10.073 19.727,9.743 C19.939,9.556 20.228,9.426 20.423,9.207 C20.545,9.07 20.611,8.887 20.717,8.726 C20.336,8.875 20.248,9.253 19.968,9.475 C19.559,9.799 19.01,9.969 18.737,10.438 C18.697,10.604 18.606,10.719 18.496,10.813 C18.285,10.816 18.222,10.968 18.014,10.974 C17.443,10.974 16.872,10.974 16.301,10.974 C16.254,10.989 16.144,10.941 16.14,11 C16.248,11.055 16.397,11.082 16.328,11.241 C16.616,11.363 17.129,11.261 17.505,11.295 C17.556,11.379 17.587,11.481 17.639,11.563 C17.644,11.522 17.63,11.464 17.666,11.455 C18.199,11.626 18.452,11.971 18.87,12.312 C19.431,12.769 19.931,12.957 20.155,13.65 C20.282,13.639 20.339,13.698 20.476,13.677 C20.375,13.351 20.168,13.119 19.995,12.901 C19.927,12.815 19.874,12.702 19.807,12.633 C19.599,12.42 19.326,12.373 19.058,12.232 C18.595,11.987 18.279,11.568 17.88,11.322 C18.398,11.241 19.102,11.348 19.62,11.268 C20.129,11.277 20.616,11.265 20.824,10.974 C20.817,10.883 20.845,10.757 20.798,10.706 C20.394,10.626 20.118,10.9 19.7,10.893 C19.468,10.893 19.236,10.893 19.004,10.893 C18.914,10.876 18.756,10.928 18.71,10.867 z M21.199,9.02 C21.535,9.202 22.027,9.369 22.296,9.528 C22.098,9.272 21.938,8.977 21.466,8.993 C21.433,8.942 21.031,8.949 21.199,9.02 z M22.805,9.823 C22.632,9.755 22.433,9.713 22.323,9.582 C22.374,9.683 22.418,9.79 22.537,9.823 C22.566,9.867 22.776,9.867 22.805,9.823 z M9.342,10.492 C9.405,10.135 9.481,9.649 9.583,9.421 C9.191,9.769 9.087,10.406 8.406,10.465 C8.289,10.482 8.103,10.43 8.031,10.492 C8.423,10.519 8.955,10.549 9.342,10.492 z M22.965,9.876 C23.132,9.944 23.266,9.87 23.367,9.796 C23.274,9.775 23.264,9.836 23.179,9.823 C23.08,9.84 22.913,9.788 22.858,9.85 C22.894,9.858 22.909,9.888 22.965,9.876 z M10.788,12.232 C11.155,11.725 11.104,10.8 11.724,10.545 C11.751,10.414 11.779,10.163 11.724,10.037 C11.2,10.209 10.863,10.567 10.761,11.161 C10.681,11.411 10.787,11.848 10.707,12.098 C10.685,11.968 10.633,11.869 10.573,11.777 C10.591,12.08 10.538,12.455 10.6,12.713 C10.627,12.553 10.76,12.498 10.734,12.285 C10.764,12.28 10.776,12.255 10.788,12.232 z M10.118,10.974 C10.334,11.106 10.505,11.283 10.547,11.589 C10.593,11.883 10.575,11.09 10.547,11.027 C10.351,10.849 10.208,10.617 9.985,10.465 C9.956,10.708 10.105,10.773 10.118,10.974 z M22.51,11.322 C22.249,11.346 22.209,11.591 22.028,11.696 C21.855,11.728 21.661,11.739 21.52,11.803 C21.955,12.081 22.505,11.801 22.51,11.322 z M15.792,13.57 C15.582,13.564 15.447,13.635 15.311,13.704 C14.989,14.132 15.496,14.326 15.498,14.747 C15.444,14.74 15.446,14.675 15.391,14.667 C15.417,14.784 15.422,14.922 15.471,15.015 C15.513,14.931 15.47,14.764 15.578,14.747 C15.672,14.698 15.641,14.383 15.605,14.292 C15.612,14.038 15.534,13.731 15.766,13.65 C15.926,13.65 16.087,13.65 16.247,13.65 C16.943,13.552 16.978,14.115 17.264,14.426 C17.438,13.855 16.973,13.472 16.328,13.543 C16.158,13.561 15.918,13.508 15.792,13.57 z" fill="#042389"/>
        </g>
        <g>
          <path d="M33.411,10.622 C33.742,11.026 33.602,11.762 33.625,12.442 C33.563,12.488 33.615,12.646 33.598,12.736 C33.612,13.455 33.551,14.098 33.571,14.824 C33.51,14.878 33.562,15.046 33.544,15.145 C33.536,16.395 33.463,17.579 33.464,18.838 C33.403,18.875 33.454,19.025 33.437,19.106 C33.437,19.347 33.437,19.588 33.437,19.829 C33.376,19.866 33.427,20.015 33.411,20.096 C33.411,20.337 33.411,20.578 33.411,20.819 C33.35,20.856 33.401,21.005 33.384,21.087 C33.331,23.294 33.276,25.673 33.196,27.965 C33.172,28.68 33.32,29.684 33.089,30.213 C32.997,30.424 32.436,30.728 32.126,30.909 C27.224,33.776 22.426,36.692 17.54,39.554 C17.063,39.833 16.872,40.054 16.201,39.982 C16.206,39.959 16.191,39.957 16.175,39.955 C15.689,39.464 15.805,38.614 15.827,37.841 C15.94,33.771 16.014,29.612 16.014,25.529 C16.014,23.886 16.014,22.269 16.148,20.792 C16.23,20.547 16.378,20.422 16.549,20.31 C17.211,19.879 17.961,19.528 18.664,19.133 C23.592,16.365 28.49,13.418 33.384,10.649 C33.4,10.647 33.416,10.645 33.411,10.622 z" fill="#042389" fill-opacity="0.563"/>
          <path d="M22.868,26.662 C23.517,26.696 24.102,26.665 24.447,26.395 C23.901,26.281 23.24,26.281 22.574,26.288 C22.517,26.223 22.702,26.125 22.788,26.047 C23.419,25.478 23.973,24.648 24.742,24.2 C25.077,23.715 25.433,23.25 25.518,22.514 C24.918,22.727 24.706,23.274 24.314,23.772 C23.846,24.366 23.478,24.879 22.949,25.512 C22.752,25.746 22.352,26.159 22.092,26.181 C21.886,26.198 21.698,26.101 21.423,26.074 C20.71,26.003 20.064,25.559 19.55,25.217 C19.241,25.012 19.032,24.779 18.559,24.735 C18.769,24.211 18.671,23.621 18.8,23.076 C18.886,22.712 19.112,22.3 19.255,21.925 C19.533,21.196 19.764,20.684 20.352,20.319 C21.717,20.095 22.66,19.451 23.751,18.954 C24.08,19.25 24.538,19.417 25.009,19.57 C24.721,19.413 24.495,18.961 24.073,18.847 C25.267,18.188 26.614,17.426 27.713,16.465 C27.865,16.332 28.017,16.163 28.221,15.983 C28.336,15.883 28.679,15.563 28.783,15.555 C28.968,15.542 29.314,15.839 29.479,15.93 C29.754,16.082 29.938,16.21 30.255,16.224 C30.32,15.578 29.846,15.243 29.078,15.341 C29.05,15.238 29.203,15.169 29.292,15.1 C29.66,14.815 30.161,14.256 30.737,14.19 C31.171,14.141 31.627,14.308 32.022,14.431 C32.262,15.497 31.767,16.714 31.647,17.83 C31.608,18.196 31.586,18.603 31.593,18.981 C31.608,19.754 31.9,20.524 31.968,21.31 C32.097,22.793 31.63,24.183 31.7,25.699 C31.717,25.798 31.666,25.965 31.727,26.02 C31.727,26.163 31.727,26.306 31.727,26.448 C31.744,26.547 31.692,26.715 31.754,26.769 C31.837,27.894 31.559,28.729 31.112,29.392 C30.389,29.706 29.773,30.247 29.024,30.624 C28.155,31.061 27.153,31.364 26.428,31.908 C26.331,31.981 26.21,32.087 26.133,32.069 C26.301,31.674 26.431,31.242 26.481,30.731 C26.28,31.323 25.953,31.79 25.759,32.39 C25.481,32.425 25.247,32.503 24.956,32.524 C24.733,32.541 24.439,32.488 24.26,32.551 C22.728,32.616 21.867,33.494 21.075,34.21 C20.973,33.207 21.434,32.767 21.423,31.855 C21.423,31.757 21.423,31.659 21.423,31.56 C21.423,31.489 21.423,31.417 21.423,31.346 C21.088,31.921 21.02,32.763 20.914,33.568 C20.852,33.773 20.905,34.094 20.888,34.344 C20.948,34.332 20.888,34.202 20.941,34.183 C20.941,34.156 20.941,34.13 20.941,34.103 C21.087,34.362 20.782,34.663 20.62,34.799 C20.506,34.894 20.29,35.006 20.111,35.12 C19.753,35.348 19.365,35.553 18.907,35.682 C18.8,35.682 18.693,35.682 18.586,35.682 C18.515,35.654 18.496,35.576 18.425,35.548 C18.466,34.098 18.421,32.733 18.158,31.587 C18.146,31.531 18.176,31.516 18.184,31.48 C18.433,30.783 18.814,30.218 18.961,29.419 C18.69,29.942 18.321,30.368 18.158,30.998 C18.078,31.088 18.184,31.363 18.104,31.453 C17.959,29.392 18.111,27.231 18.398,25.431 C18.729,25.431 19.059,25.431 19.389,25.431 C19.827,25.448 20.058,25.673 20.352,25.833 C20.439,25.942 20.537,26.04 20.647,26.127 C20.717,26.226 20.776,26.337 20.834,26.449 C20.834,26.457 20.834,26.466 20.834,26.475 C21.046,26.71 21.269,26.933 21.503,27.145 C21.592,27.225 21.639,27.347 21.744,27.412 C21.632,26.704 20.953,26.562 20.647,26.047 C21.064,26.228 21.709,26.412 22.065,26.743 C22.179,26.599 22.326,26.605 22.574,26.636 C22.62,26.697 22.778,26.645 22.868,26.662 z M30.175,25.645 C30.643,26.212 31.233,26.799 31.7,27.278 C31.25,26.676 30.761,26.112 30.175,25.645 z M21.905,27.653 C22.009,27.772 22.092,27.912 22.226,28 C22.15,27.871 22.007,27.667 21.905,27.653 z M24.233,29.58 C23.708,29.292 23.282,28.796 22.868,28.402 C22.678,28.334 22.55,28.203 22.387,28.107 C22.297,28.159 22.423,28.195 22.44,28.215 C22.753,28.583 23.031,28.86 23.404,29.151 C24.008,29.623 24.498,30.26 25.224,30.57 C25.132,30.029 24.627,29.795 24.233,29.58 z M24.554,26.314 C24.389,26.388 24.811,26.39 24.849,26.341 C25.302,26.348 25.645,26.245 25.946,26.1 C25.403,26.092 24.908,26.133 24.554,26.314 z M26.321,19.035 C26.305,19.116 26.264,19.174 26.241,19.249 C26.381,19.201 26.506,19.139 26.615,19.061 C26.521,19.048 26.441,19.021 26.321,19.035 z M26.669,19.302 C26.624,19.534 26.624,19.953 26.669,20.185 C26.775,20.574 27.71,20.8 28.194,20.854 C28.701,20.911 28.873,20.776 29.185,20.533 C29.552,20.247 29.924,19.981 30.041,19.596 C29.554,20.135 29.1,20.708 27.98,20.613 C27.474,20.317 27.213,19.775 27.044,19.141 C26.924,19.11 26.835,19.046 26.669,19.061 C26.669,19.142 26.669,19.222 26.669,19.302 z M28.141,22.835 C28.51,22.677 28.874,22.466 29.292,22.434 C29.776,22.396 30.442,22.473 30.523,22.139 C30.463,22.029 30.539,21.784 30.389,21.764 C29.748,21.957 29.093,22.43 28.382,22.594 C28.001,22.682 27.623,22.609 27.284,22.862 C27.355,23.009 27.278,23.245 27.258,23.29 C27.48,23.001 27.75,23.002 28.141,22.835 z M22.467,22.219 C22.302,22.982 21.521,23.272 21.53,24.12 C21.769,23.609 21.949,23.04 22.413,22.755 C22.724,22.529 23.416,22.433 23.27,21.925 C22.859,21.868 22.507,22.05 22.199,21.925 C22.282,21.932 22.32,21.983 22.387,22.005 C22.391,22.036 22.429,22.034 22.467,22.032 C22.467,22.094 22.467,22.157 22.467,22.219 z M27.579,25.404 C27.963,25.448 28.521,25.438 28.837,25.324 C28.418,25.249 27.918,25.312 27.579,25.404 z M27.525,28.937 C27.999,28.787 28.248,28.411 28.623,28.161 C28.659,27.874 28.865,27.621 28.864,27.385 C28.526,27.334 28.516,27.704 28.328,27.867 C28.14,28.03 27.839,28.054 27.632,28.215 C27.349,28.436 27.256,28.725 26.99,28.937 C26.936,28.937 26.883,28.937 26.829,28.937 C26.625,28.929 26.417,28.917 26.374,29.071 C26.592,29.092 26.731,29.083 26.91,29.018 C27.017,28.893 27.378,29.022 27.525,28.937 z M20.299,30.195 C20.271,30.194 20.231,30.208 20.272,30.222 C20.473,30.624 20.924,30.671 21.343,30.864 C21.614,30.989 21.839,31.221 22.146,31.185 C21.753,30.633 20.979,30.46 20.299,30.195 z" fill="#042389"/>
        </g>
      </g>
      <g>
        <path d="M0.049,10.02 C0.063,9.883 0.076,9.744 0.156,9.672 C5.494,13.398 10.807,17.149 16.187,20.833 C16.054,22.31 16.054,23.927 16.054,25.57 C16.054,29.653 15.98,33.811 15.866,37.881 C15.845,38.654 15.728,39.504 16.214,39.996 C16.125,39.996 16.036,39.996 15.947,39.996 C15.671,39.905 15.449,39.762 15.197,39.648 C11.082,36.732 6.765,33.827 2.565,30.923 C2.039,30.559 1.137,30.045 0.771,29.584 C0.745,29.423 0.685,29.296 0.691,29.103 C0.674,28.995 0.726,28.818 0.664,28.755 C0.664,28.559 0.664,28.362 0.664,28.166 C0.647,28.041 0.699,27.845 0.638,27.764 C0.638,27.649 0.638,27.533 0.638,27.417 C0.62,27.291 0.673,27.096 0.611,27.015 C0.611,26.899 0.611,26.783 0.611,26.667 C0.593,26.542 0.646,26.347 0.584,26.266 C0.584,26.15 0.584,26.034 0.584,25.918 C0.567,25.793 0.619,25.597 0.557,25.516 C0.557,25.4 0.557,25.285 0.557,25.169 C0.54,25.043 0.592,24.848 0.531,24.767 C0.531,24.651 0.531,24.535 0.531,24.419 C0.513,24.294 0.566,24.099 0.504,24.018 C0.504,23.902 0.504,23.786 0.504,23.67 C0.486,23.545 0.539,23.349 0.477,23.268 C0.477,23.152 0.477,23.036 0.477,22.921 C0.46,22.795 0.512,22.6 0.45,22.519 C0.45,22.394 0.45,22.269 0.45,22.144 C0.433,22.019 0.485,21.824 0.423,21.743 C0.423,21.627 0.423,21.511 0.423,21.395 C0.406,21.27 0.458,21.074 0.397,20.994 C0.397,20.878 0.397,20.761 0.397,20.646 C0.379,20.52 0.432,20.325 0.37,20.244 C0.37,20.128 0.37,20.012 0.37,19.896 C0.353,19.771 0.405,19.576 0.343,19.495 C0.343,19.379 0.343,19.263 0.343,19.147 C0.326,19.022 0.378,18.826 0.316,18.745 C0.316,18.629 0.316,18.513 0.316,18.398 C0.299,18.272 0.351,18.077 0.29,17.996 C0.29,17.88 0.29,17.764 0.29,17.648 C0.272,17.523 0.325,17.328 0.263,17.247 C0.263,17.131 0.263,17.015 0.263,16.899 C0.246,16.773 0.298,16.578 0.236,16.497 C0.236,16.381 0.236,16.265 0.236,16.149 C0.219,16.024 0.271,15.829 0.209,15.748 C0.209,15.632 0.209,15.516 0.209,15.4 C0.192,15.275 0.244,15.079 0.183,14.998 C0.183,14.882 0.183,14.767 0.183,14.651 C0.165,14.516 0.218,14.312 0.156,14.222 C0.156,14.106 0.156,13.99 0.156,13.874 C0.139,13.749 0.191,13.554 0.129,13.473 C0.129,13.357 0.129,13.241 0.129,13.125 C0.112,13 0.164,12.805 0.102,12.724 C0.102,12.608 0.102,12.492 0.102,12.376 C0.085,12.25 0.137,12.055 0.076,11.974 C0.091,11.584 0.056,11.245 0.049,10.877 C0.032,10.76 0.084,10.574 0.022,10.502 C0.022,10.484 0.022,10.466 0.022,10.449 C0.084,10.358 0.031,10.154 0.049,10.02 z" fill="#042389" fill-opacity="0.392"/>
        <path d="M12.189,35.834 C11.66,35.636 11.144,35.244 10.609,34.924 C10.101,34.619 9.54,34.362 9.084,34.041 C8.839,33.868 8.601,33.638 8.361,33.452 C8.11,33.256 7.808,33.08 7.612,32.89 C7.445,32.728 7.309,32.494 7.157,32.301 C6.855,31.916 6.599,31.585 6.22,31.177 C6.096,31.044 5.733,30.761 5.712,30.668 C5.664,30.462 6,29.693 6.086,29.464 C6.251,29.026 6.389,28.675 6.515,28.34 C6.648,27.982 6.803,27.572 6.916,27.189 C7.046,26.747 7.029,26.3 7.13,25.851 C7.217,25.464 7.556,25.206 7.665,24.834 C7.697,24.725 7.662,24.588 7.692,24.459 C7.722,24.329 7.812,24.238 7.826,24.138 C7.941,23.334 7.409,22.841 7.451,22.023 C7.412,21.973 7.45,21.846 7.398,21.809 C7.398,22.603 7.398,23.397 7.398,24.191 C7.224,24.678 6.843,24.956 6.702,25.476 C6.64,25.637 6.693,25.913 6.675,26.118 C6.593,27.18 6.547,28.581 6.006,29.276 C5.872,29.449 5.691,29.58 5.471,29.785 C5.212,30.026 5.021,30.342 4.614,30.187 C4.453,30.124 4.177,30.177 3.972,30.16 C3.628,30.085 3.256,29.829 2.955,29.517 C2.556,29.104 2.381,28.631 2.152,27.992 C1.928,27.368 1.697,26.817 1.777,25.931 C1.777,25.842 1.777,25.752 1.777,25.663 C1.994,24.152 2.363,22.928 2.232,21.408 C2.182,20.821 2.001,20.19 1.858,19.615 C1.634,18.721 1.322,17.941 1.429,16.778 C1.475,16.285 1.714,15.844 1.751,15.332 C1.805,14.574 1.271,13.572 1.831,13.004 C2.783,13.449 3.548,14.149 4.347,14.77 C4.93,15.225 5.53,15.72 6.113,16.216 C6.307,16.38 6.551,16.526 6.702,16.697 C6.818,16.83 6.93,17.06 7.05,17.233 C7.169,17.405 7.309,17.576 7.398,17.741 C7.684,18.271 7.805,18.864 8.442,19.079 C8.594,19.124 8.932,19.124 9.084,19.079 C9.787,18.589 10.475,19.048 11.038,19.401 C11.224,19.517 11.468,19.632 11.6,19.748 C11.835,19.957 12.035,20.327 12.215,20.605 C12.536,21.098 12.713,21.615 13.286,21.809 C13.325,22.032 13.491,22.167 13.527,22.345 C13.702,23.228 13.28,24.076 13.366,25.074 C13.397,25.433 13.479,25.816 13.58,26.145 C13.67,26.437 13.876,26.715 13.955,27.055 C14.055,27.486 14.088,28.065 14.116,28.554 C14.16,29.348 14.111,30.113 13.955,30.748 C13.907,30.943 13.772,31.138 13.741,31.337 C13.604,32.214 13.848,33.06 13.901,33.8 C13.956,34.555 13.898,35.318 14.062,36.048 C13.922,36.336 13.928,36.771 13.58,36.851 C13.491,36.851 13.402,36.851 13.313,36.851 C13.183,36.766 13.057,36.678 12.938,36.583 C12.699,36.322 12.449,36.072 12.189,35.834 z M3.089,17.714 C3.049,17.719 2.99,17.705 2.982,17.741 C3.21,18.091 3.925,18.147 4.186,17.848 C4.544,17.439 4.446,16.576 4.373,16.002 C3.829,15.853 3.985,16.944 3.811,17.286 C3.874,17.24 4.253,17.173 4.266,17.393 C4.132,17.607 3.885,17.708 3.517,17.688 C3.383,17.705 3.179,17.653 3.089,17.714 z M2.821,17.688 C2.853,17.684 2.897,17.692 2.901,17.661 C2.824,17.641 2.832,17.534 2.714,17.554 C2.719,17.487 2.673,17.47 2.634,17.447 C2.597,17.402 2.51,17.269 2.473,17.313 C2.538,17.365 2.562,17.456 2.634,17.5 C2.685,17.574 2.747,17.637 2.821,17.688 z M1.991,16.35 C2.135,16.589 2.157,16.951 2.366,17.126 C2.245,16.863 2.21,16.515 1.991,16.35 z M5.283,19.882 C5.392,19.21 5.678,18.619 5.605,17.848 C5.426,17.955 5.303,18.118 5.257,18.357 C5.194,18.821 5.248,19.401 5.23,19.909 C5.237,20.024 5.091,20.24 5.23,20.311 C5.209,20.147 5.265,20.06 5.257,19.909 C5.273,19.908 5.288,19.905 5.283,19.882 z M2.741,19.454 C2.694,19.452 2.658,19.46 2.634,19.481 C2.648,19.591 2.673,19.691 2.687,19.802 C3.042,20.071 3.262,20.476 3.544,20.819 C3.447,20.193 3.145,19.773 2.741,19.454 z M3.731,21.381 C3.668,21.203 3.651,20.979 3.544,20.846 C3.544,20.935 3.544,21.024 3.544,21.114 C3.56,21.195 3.509,21.344 3.57,21.381 C3.555,21.579 3.61,21.716 3.731,21.836 C3.731,21.809 3.731,21.783 3.731,21.756 C3.776,21.692 3.776,21.445 3.731,21.381 z M8.789,21.756 C8.942,21.5 9.089,21.038 8.95,20.659 C8.897,20.784 8.803,20.868 8.789,21.033 C8.727,21.239 8.78,21.559 8.763,21.809 C8.688,22.12 8.745,22.133 8.789,21.809 C8.789,21.791 8.789,21.774 8.789,21.756 z M7.317,21.274 C7.305,21.073 7.244,20.919 7.157,20.792 C7.203,20.961 7.243,21.135 7.317,21.274 z M9.512,25.315 C9.506,25.354 9.468,25.361 9.459,25.396 C9.553,25.307 9.681,25.172 9.726,25.048 C9.875,24.642 9.854,24.118 10.021,23.71 C10.075,23.576 10.192,23.353 10.288,23.255 C10.521,23.018 10.957,22.965 11.225,22.746 C11.446,22.566 11.606,22.356 11.68,22.05 C11.078,22.492 10.317,22.775 9.807,23.308 C9.68,23.726 9.579,24.169 9.512,24.646 C9.468,24.807 9.468,25.154 9.512,25.315 z M9.057,25.637 C9.262,25.663 9.325,25.548 9.405,25.449 C9.276,25.499 9.142,25.543 9.057,25.637 z M4.802,23.335 C4.791,23.156 4.692,22.763 4.721,23.121 C4.728,23.203 4.777,23.309 4.775,23.388 C4.838,23.432 4.805,23.572 4.855,23.629 C5.042,25.111 5.756,26.066 6.033,27.456 C6.031,27.503 6.053,27.525 6.086,27.537 C6.069,27.26 6.122,26.912 6.06,26.68 C6.021,25.292 5.113,24.772 4.882,23.576 C4.83,23.52 4.851,23.393 4.802,23.335 z M3.999,27.564 C4.012,27.63 3.998,27.725 4.079,27.724 C4.181,26.392 3.881,25.46 3.062,25.048 C3.147,25.935 4.019,26.036 3.972,27.055 C3.989,27.216 3.937,27.447 3.999,27.564 z M11.546,25.958 C11.484,26.279 11.537,26.716 11.519,27.082 C11.562,27.572 11.083,27.679 11.171,28.126 C11.827,28.15 11.662,27.105 11.707,26.44 C11.595,26.374 11.574,25.829 11.546,25.958 z M6.113,27.671 C6.121,27.65 6.057,27.595 6.06,27.59 C5.959,27.779 6.114,28.496 6.086,28.715 C6.089,28.802 6.1,28.879 6.14,28.929 C6.126,28.437 6.306,28.061 6.113,27.671 z M9.218,28.393 C9.115,28.416 9.003,28.428 8.87,28.42 C8.87,28.349 8.87,28.277 8.87,28.206 C8.677,28.353 8.386,28.4 8.174,28.527 C8.576,28.5 8.738,28.713 9.057,28.768 C9.095,28.812 9.314,28.812 9.352,28.768 C9.776,28.765 10.065,28.625 10.288,28.42 C10.295,28.423 10.309,28.416 10.315,28.42 C10.134,28.308 9.491,28.372 9.218,28.393 z M9.94,30.856 C9.72,30.603 9.26,30.448 8.977,30.347 C9.593,30.882 10.258,31.368 10.556,32.221 C10.552,32.287 10.551,32.351 10.609,32.354 C10.592,32.264 10.644,32.106 10.583,32.06 C10.552,31.591 10.187,31.314 10.074,31.016 C11.02,31.026 11.664,31.702 12.563,31.498 C12.542,31.234 12.385,31.105 12.269,30.936 C12.26,30.936 12.251,30.936 12.242,30.936 C11.618,30.873 10.877,30.927 10.208,30.909 C10.096,30.914 9.985,30.918 9.94,30.856 z M6.996,30.668 C7.047,30.778 7.113,30.873 7.184,30.963 C7.181,30.805 7.089,30.736 6.996,30.668 z M7.184,30.963 C7.307,31.295 7.5,31.556 7.746,31.766 C7.595,31.462 7.357,31.244 7.184,30.963 z M8.12,32.114 C8.069,32.049 7.995,32.007 7.933,31.953 C7.959,32.061 8.05,32.104 8.12,32.167 C8.178,32.226 8.204,32.316 8.281,32.354 C8.246,32.256 8.192,32.176 8.12,32.114 z M11.332,33.104 C11.242,33.042 11.038,33.094 10.904,33.077 C10.856,33.144 11.184,33.064 11.225,33.131 C11.429,33.381 11.653,33.755 11.867,33.907 C11.739,33.589 11.595,33.287 11.332,33.104 z M12.028,34.496 C12.024,34.374 11.987,34.287 11.948,34.201 C11.914,34.404 11.994,34.494 12.001,34.656 C12.001,34.674 12.001,34.692 12.001,34.71 C12.093,34.737 12.065,34.509 12.028,34.496 z" fill="#042389"/>
      </g>
    </g>
    <path d="M33.647,12.446 C33.63,12.536 33.681,12.695 33.62,12.74 C33.637,12.65 33.586,12.492 33.647,12.446 z" fill="#F8BED5"/>
    <path d="M33.566,15.149 C33.584,15.05 33.532,14.883 33.593,14.828 C33.576,14.927 33.628,15.095 33.566,15.149 z" fill="#FADDE8"/>
    <path d="M33.459,19.11 C33.476,19.029 33.425,18.88 33.486,18.843 C33.469,18.924 33.52,19.073 33.459,19.11 z" fill="#FADDE8"/>
    <path d="M33.433,20.1 C33.449,20.019 33.398,19.87 33.459,19.833 C33.443,19.914 33.494,20.063 33.433,20.1 z" fill="#FADDE8"/>
    <path d="M33.406,21.091 C33.423,21.01 33.372,20.86 33.433,20.823 C33.416,20.905 33.467,21.054 33.406,21.091 z" fill="#FADDE8"/>
    <path d="M13.841,36.587 C13.931,36.587 14.02,36.587 14.109,36.587 C14.08,36.631 13.87,36.631 13.841,36.587 z" fill="#EB7FA7"/>
    <path d="M15.929,39.96 C16.018,39.96 16.107,39.96 16.197,39.96 C16.213,39.961 16.228,39.964 16.223,39.986 C16.133,39.969 15.975,40.021 15.929,39.96 z" fill="#FADDE8"/>
  </g>
  <defs/>
</svg>
